FILE "Samurai Spirits (1998)(Pony Canyon)(JP)[CD-Audio].img" BINARY
  TRACK 01 AUDIO
    ISRC JPPC09716973
    INDEX 01 00:00:00
  TRACK 02 AUDIO
    ISRC JPPC09716974
    INDEX 01 01:05:67
  TRACK 03 AUDIO
    ISRC JPPC09716975
    INDEX 01 01:39:00
  TRACK 04 AUDIO
    ISRC JPPC09716976
    INDEX 01 02:09:15
  TRACK 05 AUDIO
    ISRC JPPC09716977
    INDEX 01 05:19:30
  TRACK 06 AUDIO
    ISRC JPPC09716978
    INDEX 01 07:37:35
  TRACK 07 AUDIO
    ISRC JPPC09716979
    INDEX 01 10:26:17
  TRACK 08 AUDIO
    ISRC JPPC09716980
    INDEX 01 13:10:60
  TRACK 09 AUDIO
    ISRC JPPC09716981
    INDEX 01 15:37:35
  TRACK 10 AUDIO
    ISRC JPPC09716982
    INDEX 01 16:21:37
  TRACK 11 AUDIO
    ISRC JPPC09716983
    INDEX 01 17:57:47
  TRACK 12 AUDIO
    ISRC JPPC09716984
    INDEX 01 21:20:07
  TRACK 13 AUDIO
    ISRC JPPC09716985
    INDEX 01 24:31:12
  TRACK 14 AUDIO
    ISRC JPPC09716986
    INDEX 01 27:16:50
  TRACK 15 AUDIO
    ISRC JPPC09716987
    INDEX 01 31:38:25
  TRACK 16 AUDIO
    ISRC JPPC09716988
    INDEX 01 33:14:42
  TRACK 17 AUDIO
    ISRC JPPC09716989
    INDEX 01 37:51:37
  TRACK 18 AUDIO
    ISRC JPPC09716990
    INDEX 01 40:28:70
  TRACK 19 AUDIO
    ISRC JPPC09716991
    INDEX 01 41:31:70
  TRACK 20 AUDIO
    ISRC JPPC09716992
    INDEX 01 41:43:30
  TRACK 21 AUDIO
    ISRC JPPC09716993
    INDEX 01 45:39:47
  TRACK 22 AUDIO
    ISRC JPPC09716994
    INDEX 01 45:53:17
  TRACK 23 AUDIO
    ISRC JPPC09716995
    INDEX 01 48:34:00
  TRACK 24 AUDIO
    ISRC JPPC09716996
    INDEX 01 51:54:42
  TRACK 25 AUDIO
    ISRC JPPC09716997
    INDEX 01 52:09:07
  TRACK 26 AUDIO
    ISRC JPPC09716998
    INDEX 01 52:24:55
  TRACK 27 AUDIO
    ISRC JPPC09716999
    INDEX 01 52:41:50
  TRACK 28 AUDIO
    ISRC JPPC09717000
    INDEX 01 52:54:02
  TRACK 29 AUDIO
    ISRC JPPC09717001
    INDEX 01 53:10:10
  TRACK 30 AUDIO
    ISRC JPPC09717002
    INDEX 01 53:18:10
  TRACK 31 AUDIO
    ISRC JPPC09717003
    INDEX 01 53:26:12
  TRACK 32 AUDIO
    ISRC JPPC09717004
    INDEX 01 53:34:22
  TRACK 33 AUDIO
    ISRC JPPC09717005
    INDEX 01 53:40:45
  TRACK 34 AUDIO
    ISRC JPPC09717006
    INDEX 01 53:48:57
  TRACK 35 AUDIO
    ISRC JPPC09717007
    INDEX 01 53:59:20
  TRACK 36 AUDIO
    ISRC JPPC09717008
    INDEX 01 54:57:12
  TRACK 37 AUDIO
    ISRC JPPC09717009
    INDEX 01 56:14:22
  TRACK 38 AUDIO
    ISRC JPPC09717010
    INDEX 01 56:26:50
  TRACK 39 AUDIO
    ISRC JPPC09717011
    INDEX 01 56:31:30
  TRACK 40 AUDIO
    ISRC JPPC09717012
    INDEX 00 56:36:07
    INDEX 01 56:39:50
  TRACK 41 AUDIO
    ISRC JPPC09717013
    INDEX 01 57:51:15
  TRACK 42 AUDIO
    ISRC JPPC09717014
    INDEX 01 58:44:22
  TRACK 43 AUDIO
    ISRC JPPC09717015
    INDEX 01 59:55:47
  TRACK 44 AUDIO
    ISRC JPPC09717016
    INDEX 01 60:50:65
  TRACK 45 AUDIO
    ISRC JPPC09717017
    INDEX 01 61:54:42
  TRACK 46 AUDIO
    ISRC JPPC09717018
    INDEX 01 62:53:25
  TRACK 47 AUDIO
    ISRC JPPC09717019
    INDEX 01 64:12:10
  TRACK 48 AUDIO
    ISRC JPPC09717020
    INDEX 01 65:13:20
  TRACK 49 AUDIO
    ISRC JPPC09717021
    INDEX 01 66:09:72
  TRACK 50 AUDIO
    ISRC JPPC09717022
    INDEX 01 67:00:65
  TRACK 51 AUDIO
    ISRC JPPC09717023
    INDEX 01 67:38:40
  TRACK 52 AUDIO
    ISRC JPPC09717024
    INDEX 00 68:16:40
    INDEX 01 68:20:07
